<svg width="109" height="109" viewBox="0 0 109 109" fill="none" xmlns="http://www.w3.org/2000/svg">
<rect y="0.432373" width="108.249" height="108.249" rx="54.1247" fill="#A6D5F5"/>
<path d="M50.5057 56.9692V60.588C50.5057 61.2716 50.7369 61.8445 51.1993 62.3069C51.6617 62.7693 52.2347 63.0005 52.9182 63.0005H55.3308C56.0143 63.0005 56.5873 62.7693 57.0497 62.3069C57.5121 61.8445 57.7433 61.2716 57.7433 60.588V56.9692H61.3621C62.0456 56.9692 62.6186 56.738 63.081 56.2756C63.5434 55.8132 63.7746 55.2402 63.7746 54.5567V52.1441C63.7746 51.4606 63.5434 50.8876 63.081 50.4252C62.6186 49.9628 62.0456 49.7316 61.3621 49.7316H57.7433V46.1128C57.7433 45.4293 57.5121 44.8563 57.0497 44.3939C56.5873 43.9315 56.0143 43.7003 55.3308 43.7003H52.9182C52.2347 43.7003 51.6617 43.9315 51.1993 44.3939C50.7369 44.8563 50.5057 45.4293 50.5057 46.1128V49.7316H46.8869C46.2033 49.7316 45.6304 49.9628 45.168 50.4252C44.7056 50.8876 44.4744 51.4606 44.4744 52.1441V54.5567C44.4744 55.2402 44.7056 55.8132 45.168 56.2756C45.6304 56.738 46.2033 56.9692 46.8869 56.9692H50.5057ZM54.1245 78.4408C53.843 78.4408 53.5817 78.4207 53.3404 78.3804C53.0992 78.3402 52.8579 78.2799 52.6167 78.1995C47.1885 76.3901 42.866 73.0427 39.6493 68.1573C36.4326 63.272 34.8242 58.0146 34.8242 52.3854V40.9862C34.8242 39.9809 35.1157 39.0762 35.6988 38.2721C36.2818 37.4679 37.0357 36.8849 37.9605 36.523L52.4357 31.0948C52.9986 30.8937 53.5616 30.7932 54.1245 30.7932C54.6874 30.7932 55.2503 30.8937 55.8133 31.0948L70.2885 36.523C71.2133 36.8849 71.9672 37.4679 72.5502 38.2721C73.1332 39.0762 73.4248 39.9809 73.4248 40.9862V52.3854C73.4248 58.0146 71.8164 63.272 68.5997 68.1573C65.383 73.0427 61.0605 76.3901 55.6323 78.1995C55.3911 78.2799 55.1498 78.3402 54.9086 78.3804C54.6673 78.4207 54.406 78.4408 54.1245 78.4408ZM54.1245 73.6157C58.3062 72.2888 61.7642 69.635 64.4984 65.6543C67.2326 61.6736 68.5997 57.2507 68.5997 52.3854V40.9862L54.1245 35.558L39.6493 40.9862V52.3854C39.6493 57.2507 41.0164 61.6736 43.7506 65.6543C46.4848 69.635 49.9428 72.2888 54.1245 73.6157Z" fill="white"/>
</svg>
