<svg width="275" height="75" viewBox="0 0 275 75" fill="none" xmlns="http://www.w3.org/2000/svg">
<path d="M0 56.7036V3.78024H9.48807V56.7036H0Z" fill="#4D6A7F"/>
<path d="M18.8603 56.7036V18.9012H27.4589L27.8295 25.9325L25.6799 23.0595C27.0883 21.8498 28.7684 20.7535 30.7204 19.7707C32.6724 18.7878 34.9456 18.2964 37.54 18.2964C42.284 18.2964 45.805 19.9093 48.1028 23.1351C50.4007 26.3357 51.5497 30.494 51.5497 35.6099V56.7036H42.3581V36.3659C42.3581 32.8377 41.7775 30.2293 40.6162 28.5408C39.4796 26.8523 37.6141 26.0081 35.0197 26.0081C32.9195 26.0081 31.2022 26.5373 29.868 27.5958C28.5337 28.629 27.36 30.0151 26.347 31.754L28.0519 27.1421V56.7036H18.8603Z" fill="#4D6A7F"/>
<path d="M70.2855 57.4597C67.8393 57.4597 65.6279 57.2203 63.6513 56.7414C61.6993 56.2626 59.735 55.5696 57.7583 54.6623L58.5737 46.6482C60.4762 47.7823 62.3417 48.7021 64.1701 49.4078C66.0233 50.0882 67.9629 50.4284 69.989 50.4284C71.8174 50.4284 73.2135 50.126 74.1771 49.5212C75.1407 48.9163 75.6225 47.9587 75.6225 46.6482C75.6225 45.6653 75.3631 44.8589 74.8442 44.2288C74.3501 43.5988 73.5964 43.0318 72.5834 42.5277C71.5703 42.0237 70.3102 41.4819 68.803 40.9022C66.5298 40.0454 64.5902 39.1129 62.9841 38.1048C61.4028 37.0968 60.1921 35.8871 59.352 34.4758C58.5366 33.0393 58.1289 31.2752 58.1289 29.1835C58.1289 27.0161 58.6848 25.1008 59.7967 23.4375C60.9086 21.7742 62.49 20.4763 64.5408 19.5439C66.5916 18.6114 69.0254 18.1452 71.8421 18.1452C74.1894 18.1452 76.2897 18.4098 78.1428 18.939C80.0207 19.4682 81.7503 20.1865 83.3316 21.0938L82.5162 29.1079C80.8607 27.9234 79.1929 26.9531 77.5127 26.1971C75.8326 25.4158 73.9918 25.0252 71.9904 25.0252C70.409 25.0252 69.186 25.3528 68.3212 26.0081C67.4564 26.6633 67.024 27.5958 67.024 28.8054C67.024 30.2671 67.6293 31.3634 68.8401 32.0943C70.0508 32.8251 71.9904 33.7198 74.6589 34.7782C76.3885 35.4587 77.8834 36.1643 79.1435 36.8952C80.4283 37.626 81.4908 38.4325 82.3309 39.3145C83.171 40.1966 83.7887 41.2046 84.184 42.3387C84.6041 43.4476 84.8141 44.7329 84.8141 46.1946C84.8141 48.5887 84.2458 50.63 83.1092 52.3185C81.9973 53.9819 80.3542 55.2545 78.1799 56.1366C76.0302 57.0186 73.3988 57.4597 70.2855 57.4597Z" fill="#4D6A7F"/>
<path d="M91.1038 75V18.9012H98.5163L100.295 25.1764L97.5527 24.1936C99.2576 22.4042 101.111 20.9803 103.112 19.9219C105.114 18.8382 107.56 18.2964 110.451 18.2964C114.083 18.2964 117.134 19.191 119.605 20.9803C122.076 22.7697 123.941 25.1512 125.202 28.125C126.486 31.0988 127.129 34.3498 127.129 37.878C127.129 41.4062 126.486 44.6573 125.202 47.6311C123.941 50.6048 122.076 52.9864 119.605 54.7757C117.134 56.565 114.083 57.4597 110.451 57.4597C107.56 57.4597 105.212 57.0564 103.409 56.25C101.605 55.4436 99.7765 54.1583 97.9233 52.3942L100.295 50.504V75H91.1038ZM109.042 49.748C111.785 49.748 113.91 48.6517 115.417 46.4592C116.949 44.2414 117.715 41.381 117.715 37.878C117.715 34.3498 116.949 31.4894 115.417 29.2969C113.91 27.1043 111.785 26.0081 109.042 26.0081C106.917 26.0081 105.175 26.5121 103.816 27.5202C102.457 28.5282 101.457 29.9269 100.814 31.7162C100.172 33.4803 99.8506 35.5343 99.8506 37.878C99.8506 40.2218 100.172 42.2883 100.814 44.0776C101.457 45.8417 102.457 47.2278 103.816 48.2359C105.175 49.244 106.917 49.748 109.042 49.748Z" fill="#4D6A7F"/>
<path d="M133.523 56.7036V18.9012H142.715V56.7036H133.523ZM133.523 13.1552V3.78024H142.715V13.1552H133.523Z" fill="#4D6A7F"/>
<path d="M151.331 56.7036V18.9012H159.929L160.152 22.9083C161.091 21.8498 162.413 20.7913 164.117 19.7329C165.822 18.6744 167.688 18.1452 169.714 18.1452C170.307 18.1452 170.851 18.1956 171.345 18.2964L170.678 27.5202C170.134 27.369 169.59 27.2681 169.047 27.2177C168.528 27.1673 168.009 27.1421 167.49 27.1421C165.934 27.1421 164.513 27.5076 163.228 28.2384C161.943 28.9693 161.041 29.8639 160.522 30.9224V56.7036H151.331Z" fill="#4D6A7F"/>
<path d="M175.798 56.7036V18.9012H184.99V56.7036H175.798ZM175.798 13.1552V3.78024H184.99V13.1552H175.798Z" fill="#4D6A7F"/>
<path d="M205.688 57.4597C203.365 57.4597 201.475 56.9809 200.017 56.0232C198.56 55.0403 197.485 53.7928 196.793 52.2807C196.101 50.7687 195.755 49.1935 195.755 47.5554V26.6129H190.492L191.308 18.9012H195.755V10.5847L204.947 9.60182V18.9012H213.101V26.6129H204.947V43.6996C204.947 45.6149 205.058 47.001 205.28 47.8579C205.503 48.6895 206.009 49.2188 206.8 49.4456C207.591 49.6472 208.851 49.748 210.58 49.748H213.101L212.285 57.4597H205.688Z" fill="#4D6A7F"/>
<path d="M235.913 57.4597C231.885 57.4597 228.451 56.565 225.609 54.7757C222.768 52.9864 220.593 50.6048 219.086 47.6311C217.604 44.6573 216.862 41.4062 216.862 37.878C216.862 34.3246 217.604 31.0484 219.086 28.0494C220.593 25.0504 222.768 22.6563 225.609 20.8669C228.451 19.0524 231.885 18.1452 235.913 18.1452C239.94 18.1452 243.375 19.0524 246.216 20.8669C249.058 22.6563 251.22 25.0504 252.702 28.0494C254.209 31.0484 254.963 34.3246 254.963 37.878C254.963 41.4062 254.209 44.6573 252.702 47.6311C251.22 50.6048 249.058 52.9864 246.216 54.7757C243.375 56.565 239.94 57.4597 235.913 57.4597ZM235.913 49.748C239.001 49.748 241.373 48.6517 243.029 46.4592C244.709 44.2414 245.549 41.381 245.549 37.878C245.549 34.3246 244.709 31.439 243.029 29.2213C241.373 26.9783 239.001 25.8569 235.913 25.8569C232.849 25.8569 230.477 26.9783 228.797 29.2213C227.116 31.439 226.276 34.3246 226.276 37.878C226.276 41.381 227.116 44.2414 228.797 46.4592C230.477 48.6517 232.849 49.748 235.913 49.748Z" fill="#4D6A7F"/>
<path d="M270.849 57.4597C268.65 57.4597 266.846 57.0186 265.438 56.1366C264.054 55.2293 263.029 54.0323 262.362 52.5454C261.694 51.0333 261.361 49.37 261.361 47.5554V0H270.552V43.6996C270.552 45.7157 270.664 47.1522 270.886 48.0091C271.133 48.8407 271.578 49.3448 272.22 49.5212C272.863 49.6724 273.789 49.748 275 49.748L274.185 57.4597H270.849Z" fill="#4D6A7F"/>
</svg>
