<svg width="430" height="64" viewBox="0 0 430 64" fill="none" xmlns="http://www.w3.org/2000/svg">
<path d="M107.29 46.2508C107.567 48.2835 107.29 51.8869 106.366 53.8272H77.6309L84.0986 9.01531C86.6856 8.18375 90.3815 8.27615 92.7837 9.01531L87.4248 46.1584L107.29 46.2508Z" fill="white"/>
<path d="M154.505 32.487C152.38 47.5475 144.712 54.8468 131.037 54.8468C117.362 54.8468 110.34 47.2703 112.835 31.2859C115.237 16.133 123.091 9.01855 136.488 9.01855C150.163 9.01855 156.723 16.595 154.505 32.487ZM121.797 31.9327C119.949 41.9114 123.091 46.9932 130.945 46.9932C138.891 46.9932 143.695 42.1886 145.451 31.7479C147.021 21.7692 144.065 17.057 136.396 16.9646C128.542 16.7798 123.645 21.5844 121.797 31.9327Z" fill="white"/>
<path d="M203.102 32.7642C201.162 47.5475 192.939 54.7544 177.139 54.7544C173.998 54.7544 166.236 54.4772 160.508 53.8304L166.883 9.94251C172.612 9.29574 179.818 9.01855 182.59 9.01855C197.651 9.01855 205.32 16.6874 203.102 32.7642ZM183.33 16.8722H174.644L170.302 46.9008H178.34C186.841 46.9008 192.754 42.281 194.232 31.2859C195.618 21.1224 191.368 16.8722 183.33 16.8722Z" fill="white"/>
<path d="M238.119 36.3677C239.875 38.308 244.402 48.7487 250.038 54.0152C235.625 60.6677 233.13 37.7536 230.358 37.0144H221.765L219.363 53.8304C216.868 54.5696 213.172 54.2924 210.678 53.8304L216.776 9.94251C221.58 9.29574 227.494 9.01855 231.19 9.01855C245.141 9.01855 251.517 14.1927 250.315 23.5247C249.669 30.2696 245.141 34.7045 238.119 36.3677ZM233.315 16.7798L224.629 16.8722L222.782 30.2696H230.728C236.918 30.2696 240.799 27.6825 241.353 23.2475C242 19.1821 239.413 16.7798 233.315 16.7798Z" fill="white"/>
<path d="M270.645 27.9592H289.309C289.771 29.5299 289.586 32.8561 288.754 34.5192H269.721L268.058 45.8839H290.233C290.695 47.9166 290.325 51.8896 289.401 53.7375H258.264L264.547 9.84961H295.684C296.053 11.7899 295.776 15.7629 294.852 17.7032H272.215L270.645 27.9592Z" fill="white"/>
<path d="M337.353 10.9536C337.723 13.4483 337.169 16.3126 335.783 18.3453C334.397 17.6061 326.081 16.8669 321.923 16.9593C316.287 17.0517 313.515 18.2529 312.961 21.0247C312.499 23.3346 314.255 24.9977 316.842 26.1989L326.913 29.9871C332.641 32.6666 336.707 37.1016 335.598 43.3845C334.397 50.7761 328.022 54.7491 316.657 54.8415C310.466 54.9339 302.705 54.01 300.395 52.9012C300.118 50.4989 300.857 47.5423 301.689 45.5096C304.738 46.3411 312.684 46.8031 316.934 46.8031C323.679 46.6183 326.081 45.14 326.728 42.3681C327.282 39.9658 325.712 38.6723 323.587 37.7483L313.423 33.6829C307.048 30.7263 303.167 26.4761 303.999 20.2856C304.923 13.1711 310.928 8.9209 322.663 8.9209C329.038 9.01329 336.152 10.3068 337.353 10.9536Z" fill="white"/>
<path d="M379.394 10.9589C379.764 13.4535 379.21 16.3178 377.824 18.3505C376.438 17.6113 368.122 16.8722 363.964 16.9646C358.328 17.057 355.556 18.2581 355.002 21.03C354.54 23.3399 356.296 25.003 358.883 26.2041L368.954 29.9924C374.682 32.6718 378.748 37.1068 377.639 43.3897C376.438 50.7814 370.063 54.7544 358.698 54.8468C352.507 54.9392 344.746 54.0152 342.436 52.9065C342.159 50.5042 342.898 47.5475 343.73 45.5148C346.779 46.3464 354.725 46.8084 358.975 46.8084C365.72 46.6236 368.122 45.1452 368.769 42.3734C369.323 39.9711 367.753 38.6776 365.628 37.7536L355.372 33.7806C348.996 30.8239 345.116 26.5737 345.947 20.3832C346.871 13.2688 352.877 9.01855 364.611 9.01855C371.079 9.01855 378.193 10.3121 379.394 10.9589Z" fill="white"/>
<path d="M429.193 32.487C427.068 47.5475 419.399 54.8468 405.724 54.8468C392.05 54.8468 385.028 47.2703 387.522 31.2859C389.925 16.133 397.778 9.01855 411.176 9.01855C424.943 9.01855 431.503 16.595 429.193 32.487ZM396.577 31.9327C394.729 41.9114 397.871 46.9932 405.724 46.9932C413.67 46.9932 418.475 42.1886 420.231 31.7479C421.801 21.7692 418.845 17.057 411.176 16.9646C403.322 16.7798 398.425 21.5844 396.577 31.9327Z" fill="white"/>
<path d="M3.99065 58.7232C12.8606 76.6479 71.9014 37.3798 69.9611 18.8082C68.298 3.28578 48.6177 -0.872023 33.1877 0.144329C19.1435 3.00859 18.5892 23.3356 19.5131 27.9554C21.5458 40.0592 29.4918 43.8475 28.1983 34.2383C26.9972 25.2759 28.9375 7.25879 35.3128 4.67172C46.3079 3.19339 60.6292 8.55233 57.9497 23.7976C54.8083 37.195 32.9105 58.6308 19.8827 53.7338C3.99065 47.5433 12.2139 11.509 14.8009 3.56297C17.2956 -4.47545 5.0994 9.1991 2.05034 23.5204C-0.90632 37.7494 -0.998715 48.652 3.99065 58.7232Z" fill="#F7AA00"/>
</svg>
