<svg width="421" height="192" viewBox="0 0 421 192" fill="none" xmlns="http://www.w3.org/2000/svg">
<g style="mix-blend-mode:color-burn">
<path d="M0 190.925V88.6651C0 75.4661 4.55139 64.391 13.5025 55.44C22.4535 46.4889 33.6803 41.9375 46.8793 41.9375C60.0783 41.9375 71.0017 46.4889 80.1045 55.44C89.2072 64.391 93.6069 75.6178 93.6069 88.5134C93.6069 101.409 89.0555 112.636 80.1045 121.739C71.1534 130.841 59.9266 135.241 46.8793 135.241C38.5351 135.241 30.646 133.117 23.6672 129.172L20.7847 127.504V190.925H0ZM46.8793 62.5705C39.7488 62.5705 33.5286 65.1496 28.3703 70.1561C23.3638 75.1627 20.7847 81.3829 20.7847 88.5134C20.7847 95.6439 23.3638 101.864 28.3703 106.871C33.3769 111.877 39.5971 114.456 46.8793 114.456C54.1615 114.456 60.2301 111.877 65.2366 106.871C70.2431 101.864 72.8222 95.6439 72.8222 88.5134C72.8222 81.3829 70.2431 75.1627 65.2366 70.1561C60.2301 65.1496 54.0098 62.5705 46.8793 62.5705Z" fill="#1C1C1C"/>
<path d="M146.405 131.58C134.268 131.124 123.648 126.573 115.001 118.077C105.898 109.126 101.347 97.8994 101.347 85.0038V0H122.131V40.8553H146.405V57.9988H122.131V84.852C122.131 91.9825 124.71 98.2028 129.717 103.209C134.42 107.761 139.882 110.34 146.254 110.643V131.428L146.405 131.58Z" fill="#1C1C1C"/>
<path d="M201.166 134.312C187.967 134.312 176.741 129.761 167.79 120.81C158.839 111.859 154.287 100.632 154.287 87.5847C154.287 74.5374 158.838 63.4623 167.941 54.5112C177.044 45.5602 188.119 41.0088 201.166 41.0088C214.214 41.0088 225.289 45.5602 234.392 54.5112C244.708 64.8277 249.108 77.4199 247.742 92.8946H175.527C177.196 98.3563 181.14 105.335 185.692 108.673C190.243 112.01 195.401 113.679 201.166 113.679C207.69 113.679 216.489 112.617 222.103 107.459L234.695 124.148C226.958 130.823 215.124 134.464 201.166 134.464V134.312ZM200.56 61.6418C190.091 61.6418 180.989 69.0757 176.134 78.1785H224.834L223.317 75.4476C218.462 66.3449 210.876 61.6418 200.56 61.6418Z" fill="#1C1C1C"/>
<path d="M255.638 131.579V87.4304C255.638 74.3831 260.189 63.308 269.292 54.357C277.94 45.861 288.408 41.3096 300.696 40.8545V61.6392C294.325 62.0943 288.711 64.5217 284.16 69.0731C279.001 74.0796 276.422 80.2999 276.422 87.4304V131.579H255.638Z" fill="#1C1C1C"/>
<path d="M366.687 133.399C348.785 136.737 333.614 132.489 322.083 120.807C313.132 111.704 308.581 100.629 308.581 87.7338C308.581 77.8725 311.464 68.7697 316.925 60.8806C322.539 52.9915 329.973 47.2264 339.379 43.8888C344.84 41.9165 350.302 40.8545 355.46 40.8545C369.418 40.8545 381.707 46.6196 391.871 57.9981C395.057 61.6392 397.333 66.0388 399.002 70.5902L421 131.579H398.85L393.085 115.497L389.899 119.29C383.831 126.421 375.79 131.731 366.687 133.399ZM355.157 61.6392C346.054 61.6392 338.924 65.432 333.917 72.7142C330.731 77.2656 329.214 82.2721 329.214 87.7338C329.214 96.6849 333.007 103.967 340.441 108.974C344.992 112.16 349.999 113.677 355.157 113.677C362.287 113.677 368.508 111.098 373.666 106.091C378.824 101.085 381.403 94.8643 381.403 87.7338C381.403 78.631 377.61 71.3488 370.177 66.1906C365.929 63.1563 360.922 61.6392 355.309 61.6392H355.157Z" fill="#1C1C1C"/>
</g>
<g style="mix-blend-mode:color-burn" opacity="0.76">
<path d="M229.42 190.901V154.742H233.041V190.901H229.42Z" fill="#151515"/>
<path d="M241.779 190.901V164.137H245.4V167.611C247.651 164.871 250.44 163.501 254.011 163.501C261.4 163.501 265.461 168.247 265.461 176.859V190.901H261.84V176.859C261.84 170.253 259.002 166.828 253.571 166.828C248.238 166.828 245.4 170.057 245.4 176.174V190.901H241.779Z" fill="#151515"/>
<path d="M276.879 190.901V167.415H271.105V164.137H276.879V154.742H280.5V164.137H286.518V167.415H280.5V190.901H276.879Z" fill="#151515"/>
<path d="M314.5 182.094H318.267C316.31 187.721 311.075 191.538 305.252 191.538C297.325 191.538 291.111 185.323 291.111 177.397C291.111 169.617 297.227 163.501 304.958 163.501C312.64 163.501 319.099 169.764 319.099 177.201C319.099 177.69 319.001 178.229 318.903 178.718H294.732C295.026 184.002 299.625 188.21 305.154 188.21C309.215 188.21 312.983 185.764 314.5 182.094ZM294.83 175.44H315.332C314.108 170.106 310.145 166.828 304.958 166.828C299.87 166.828 295.808 170.302 294.83 175.44Z" fill="#151515"/>
<path d="M325.92 190.901V164.137H329.54V167.953C330.959 165.017 333.21 163.696 337.124 163.501V167.073C332.085 167.562 329.54 170.302 329.54 175.293V190.901H325.92Z" fill="#151515"/>
<path d="M342.594 190.901V164.137H346.215V190.901H342.594ZM342.594 160.907V154.742H346.215V160.907H342.594Z" fill="#151515"/>
<path d="M353.319 177.544C353.319 169.421 359.289 163.501 367.509 163.501C375.387 163.501 381.258 169.519 381.258 177.593C381.258 185.617 375.485 191.538 367.607 191.538C359.435 191.538 353.319 185.568 353.319 177.544ZM367.509 188.21C373.381 188.21 377.589 183.807 377.589 177.641C377.589 171.329 373.283 166.828 367.215 166.828C361.344 166.828 356.989 171.427 356.989 177.593C356.989 183.709 361.442 188.21 367.509 188.21Z" fill="#151515"/>
<path d="M388.366 190.901V164.137H391.987V167.953C393.406 165.017 395.657 163.696 399.571 163.501V167.073C394.532 167.562 391.987 170.302 391.987 175.293V190.901H388.366Z" fill="#151515"/>
<path d="M402.839 183.024H406.411C406.607 186.351 408.417 188.21 411.451 188.21C414.093 188.21 415.952 186.253 415.952 183.562C415.952 181.067 414.876 179.99 410.766 178.424C405.579 176.418 403.818 174.559 403.818 171.036C403.818 166.534 406.9 163.501 411.402 163.501C415.708 163.501 418.79 166.436 418.937 170.742H415.267C415.072 168.198 413.702 166.828 411.353 166.828C409.102 166.828 407.487 168.247 407.487 170.302C407.487 172.602 409.396 174.363 413.408 175.782C417.371 177.152 419.622 179.843 419.622 183.219C419.622 188.112 416.295 191.538 411.451 191.538C406.264 191.538 402.888 188.21 402.839 183.024Z" fill="#151515"/>
</g>
</svg>
