<svg width="109" height="109" viewBox="0 0 109 109" fill="none" xmlns="http://www.w3.org/2000/svg">
<rect y="0.432617" width="108.249" height="108.249" rx="54.1247" fill="#A6D5F5"/>
<path d="M54.1244 44.9076C51.4706 44.9076 49.1988 45.8525 47.309 47.7423C45.4191 49.6321 44.4742 51.9039 44.4742 54.5577C44.4742 56.3671 44.9266 58.0358 45.8313 59.5637C46.736 61.0917 47.9925 62.2778 49.6009 63.1222C50.2442 63.4439 50.6966 63.9163 50.9579 64.5396C51.2193 65.1628 51.2092 65.7961 50.9278 66.4394C50.6463 67.0024 50.2241 67.4246 49.6612 67.706C49.0983 67.9875 48.5353 67.9875 47.9724 67.706C45.4392 66.4998 43.4187 64.7105 41.9109 62.3381C40.4031 59.9658 39.6492 57.3723 39.6492 54.5577C39.6492 50.5368 41.0565 47.1191 43.8711 44.3044C46.6857 41.4898 50.1035 40.0825 54.1244 40.0825C56.9792 40.0825 59.6028 40.8364 61.9953 42.3443C64.3877 43.8521 66.1669 45.9128 67.333 48.5264C67.5742 49.0893 67.5642 49.6522 67.3028 50.2152C67.0415 50.7781 66.6293 51.1802 66.0664 51.4214C65.4231 51.7029 64.7797 51.7029 64.1364 51.4214C63.493 51.14 63.0105 50.6776 62.6889 50.0342C61.8445 48.4259 60.6583 47.1693 59.1304 46.2646C57.6024 45.3599 55.9338 44.9076 54.1244 44.9076ZM54.1244 35.2574C48.7364 35.2574 44.1727 37.1272 40.4332 40.8666C36.6938 44.606 34.8241 49.1697 34.8241 54.5577C34.8241 59.624 36.4928 63.9666 39.8301 67.5854C43.1674 71.2042 47.3492 73.2548 52.3753 73.7374C53.0588 73.8178 53.6519 74.1193 54.1545 74.6421C54.6571 75.1648 54.8883 75.7679 54.8481 76.4515C54.8079 77.135 54.5566 77.6979 54.0942 78.1402C53.6318 78.5825 53.0588 78.7836 52.3753 78.7434C49.239 78.5423 46.3138 77.7582 43.5997 76.3911C40.8856 75.024 38.5133 73.2448 36.4827 71.0534C34.4522 68.862 32.8639 66.349 31.718 63.5142C30.572 60.6795 29.999 57.694 29.999 54.5577C29.999 51.2204 30.6323 48.0841 31.8989 45.1488C33.1655 42.2136 34.8844 39.6603 37.0557 37.489C39.227 35.3178 41.7802 33.5988 44.7155 32.3322C47.6507 31.0657 50.787 30.4324 54.1244 30.4324C60.4372 30.4324 65.9357 32.5835 70.6201 36.8859C75.3044 41.1883 77.8677 46.4958 78.31 52.8086C78.3904 53.452 78.1994 54.0048 77.737 54.4672C77.2746 54.9296 76.7017 55.181 76.0181 55.2212C75.3346 55.2614 74.7214 55.0402 74.1786 54.5577C73.6357 54.0752 73.3241 53.4922 73.2437 52.8086C72.6406 47.9836 70.5396 43.8521 66.941 40.4142C63.3423 36.9764 59.0701 35.2574 54.1244 35.2574ZM72.339 77.4768L64.3776 69.5757L62.5682 75.0643C62.3672 75.6272 61.9852 75.8986 61.4223 75.8785C60.8594 75.8584 60.4774 75.5669 60.2763 75.0039L54.7878 56.729C54.627 56.2867 54.7275 55.8846 55.0894 55.5227C55.4513 55.1608 55.8533 55.0603 56.2956 55.2212L74.5706 60.7097C75.1335 60.9107 75.425 61.2927 75.4451 61.8556C75.4652 62.4186 75.1938 62.8005 74.6309 63.0016L69.1424 64.811L77.1038 72.7723C77.7873 73.4559 78.1291 74.24 78.1291 75.1246C78.1291 76.0092 77.7873 76.7932 77.1038 77.4768C76.4202 78.1603 75.6261 78.5021 74.7214 78.5021C73.8167 78.5021 73.0225 78.1603 72.339 77.4768Z" fill="white"/>
</svg>
